<?xml version="1.0" encoding="utf-8"?>
<!-- Generator: Adobe Illustrator 19.0.0, SVG Export Plug-In . SVG Version: 6.00 Build 0)  -->
<svg version="1.1" id="Layer_1" xmlns="http://www.w3.org/2000/svg" xmlns:xlink="http://www.w3.org/1999/xlink" x="0px" y="0px"
	 viewBox="-452 213 375 375" enable-background="new -452 213 375 375" xml:space="preserve">
<path fill="#484848" d="M-376.1,302.9l20.2,231.4L-265,560l91-25.7l20.2-231.3h-222.3V302.9z M-197.9,376.8l-66.9,30.3h64.4
	l-7.5,87.5l-56.9,16.2l0,0h-0.3l-57.1-16.2l-3.9-44.5h27.9l2,22.5l31.1,8.5h0.1l0,0l30.9-8.8l3-37h-33.9h-62.5l-2.5-28.3l65-28.3
	l4.5-2h-4.5h-67.5l-2.5-28.3h69.8h0.3h69.3L-197.9,376.8z"/>
<g>
	<polygon fill="#484848" points="-297.2,254.9 -297.2,240.2 -331.6,240.2 -331.6,283.2 -297.2,283.2 -297.2,268.5 -317.2,268.5
		-317.2,254.9 	"/>
	<polygon fill="#484848" points="-248.3,240.2 -282.8,240.2 -282.8,255.4 -268.3,268.5 -282.8,268.5 -282.8,283.2 -248.3,283.2
		-248.3,268.9 -261.4,254.9 -248.3,254.9 	"/>
	<polygon fill="#484848" points="-198.3,240.2 -232.7,240.2 -232.7,255.4 -218.9,268.5 -232.7,268.5 -232.7,283.2 -198.3,283.2
		-198.3,268.9 -211.9,254.9 -198.3,254.9 	"/>
</g>
</svg>
