<?xml version="1.0" encoding="utf-8"?>
<!-- Generator: Adobe Illustrator 19.0.0, SVG Export Plug-In . SVG Version: 6.00 Build 0)  -->
<svg version="1.1" id="Layer_1" xmlns="http://www.w3.org/2000/svg" xmlns:xlink="http://www.w3.org/1999/xlink" x="0px" y="0px"
	 viewBox="-490 213 531 375" enable-background="new -490 213 531 375" xml:space="preserve">
<g>
	<g>
		<g>
			<g>
				<path fill="#484848" d="M-170.2,246h14.2v14.1h12.9V246h14.2v42.6h-14.2v-14.2H-156v14.2h-14.2V246L-170.2,246z"/>
				<path fill="#484848" d="M-110.1,260.1h-12.6V246h39.4v14.1h-12.6v28.6h-14.2V260.1L-110.1,260.1z"/>
				<path fill="#484848" d="M-77.2,246h14.8l9.2,15l9.2-15h14.8v42.6h-14.1v-21.1l-9.8,15.2h-0.3l-9.8-15.2v21.1h-14L-77.2,246
					L-77.2,246L-77.2,246z"/>
				<path fill="#484848" d="M-22.1,246h14.2v28.6h20v14.1h-34.2V246z"/>
			</g>
			<g>
				<path fill="#484848" d="M-191,308l20.4,228.3l91.4,25.4l91.6-25.4L32.9,308H-191z M-9.8,362.2l-1.3,14.2l-0.6,6.3h-0.2h-67.5
					h-0.2h-39.5l2.6,28.7h37h0.2h57.5h7.6l-0.7,7.4l-6.6,73.8l-0.5,4.7l-57.3,15.8l0,0h-0.2l-57.3-16l-4-43.9h12.9h15.2l2,22.4
					l31.2,8.4l0,0l0,0l31.2-8.4l3.2-36.3h-34.4h-0.2H-142l-6.8-77.2l-0.7-7.6h70.2h0.2h70.1L-9.8,362.2z"/>
			</g>
		</g>
	</g>
	<g>
		<path fill="#484848" d="M-481.9,307.9l19.9,228.5l89.8,25.4l89.9-25.4l19.9-228.4L-481.9,307.9L-481.9,307.9z M-305.9,380.9
			l-66.1,29.9h63.6l-7.4,86.4l-56.2,16l0,0h-0.3l-56.4-16l-3.9-43.9h27.6l2,22.2l30.7,8.4h0.1l0,0l30.5-8.7l3-36.5h-33.5h-61.7
			l-2.5-27.9l64.2-27.9l4.4-2h-4.4h-66.7l-2.5-27.9h68.9h0.3h68.4L-305.9,380.9z"/>
		<g>
			<polygon fill="#484848" points="-403.9,260.5 -403.9,246 -437.9,246 -437.9,288.5 -403.9,288.5 -403.9,273.9 -423.7,273.9
				-423.7,260.5 			"/>
			<polygon fill="#484848" points="-355.7,246 -389.7,246 -389.7,261 -375.4,273.9 -389.7,273.9 -389.7,288.5 -355.7,288.5
				-355.7,274.3 -368.6,260.5 -355.7,260.5 			"/>
			<polygon fill="#484848" points="-306.3,246 -340.3,246 -340.3,261 -326.6,273.9 -340.3,273.9 -340.3,288.5 -306.3,288.5
				-306.3,274.3 -319.7,260.5 -306.3,260.5 			"/>
		</g>
	</g>
	<g>
		<path fill="#434343" d="M-251.5,413.9h20.6v-20.8h12.8v20.8h20.6v12.3h-20.6V447h-12.8v-20.8h-20.6V413.9z"/>
	</g>
</g>
</svg>
