<?xml version="1.0" encoding="utf-8"?>
<!-- Generator: Adobe Illustrator 19.0.0, SVG Export Plug-In . SVG Version: 6.00 Build 0)  -->
<svg version="1.1" id="Isolation_Mode" xmlns="http://www.w3.org/2000/svg" xmlns:xlink="http://www.w3.org/1999/xlink" x="0px"
	 y="0px" viewBox="0 0 375 375" enable-background="new 0 0 375 375" xml:space="preserve">
<g>
	<path fill="#494849" d="M27.7,27.7v319.6h319.7V27.7H27.7z M201.4,276.7c0,31.1-18.2,45.2-44.8,45.2c-24,0-37.9-12.4-45-27.4
		l24.4-14.8c4.7,8.4,9,15.4,19.3,15.4c9.9,0,16.1-3.9,16.1-18.9v-102h30V276.7z M272.3,321.9c-27.9,0-45.9-13.3-54.6-30.6l24.4-14.1
		c6.4,10.5,14.8,18.2,29.6,18.2c12.4,0,20.4-6.2,20.4-14.8c0-10.3-8.1-13.9-21.9-19.9l-7.5-3.2c-21.6-9.2-36-20.8-36-45.2
		c0-22.5,17.1-39.6,43.9-39.6c19.1,0,32.8,6.6,42.6,24l-23.4,15c-5.1-9.2-10.7-12.9-19.3-12.9c-8.8,0-14.4,5.6-14.4,12.9
		c0,9,5.6,12.6,18.4,18.2l7.5,3.2c25.5,10.9,39.9,22.1,39.9,47.1C322.1,307.1,300.8,321.9,272.3,321.9z"/>
</g>
</svg>
