<?xml version="1.0" encoding="utf-8"?>
<!-- Generator: Adobe Illustrator 19.0.0, SVG Export Plug-In . SVG Version: 6.00 Build 0)  -->
<svg version="1.1" id="Layer_1" xmlns="http://www.w3.org/2000/svg" xmlns:xlink="http://www.w3.org/1999/xlink" x="0px" y="0px"
	 viewBox="-452 213 375 375" enable-background="new -452 213 375 375" xml:space="preserve">
<g>
	<g>
		<path fill="#AA1E22" d="M-312.8,336.9c-7.5,0-12.7,0.8-15.4,1.5v48.8c3.2,0.7,7.1,0.9,12.4,0.9c19.9,0,32.2-10,32.2-27
			C-283.6,345.9-294.1,336.9-312.8,336.9L-312.8,336.9z"/>
		<path fill="#AA1E22" d="M-132.8,251.3h-281.8v300.1h300.1V269.7C-114.4,259.5-122.7,251.3-132.8,251.3L-132.8,251.3z
			 M-261.8,399.4c-12.7,12-31.6,17.4-53.7,17.4c-4.9,0-9.3-0.2-12.7-0.7v59.1h-37V312.1c11.5-1.9,27.7-3.4,50.5-3.4
			c23.1,0,39.5,4.4,50.5,13.2c10.7,8.3,17.7,22.1,17.7,38.3C-246.6,376.4-251.9,390.1-261.8,399.4L-261.8,399.4z M-206,477.7
			c-15.7,0-29.7-3.4-38.8-8.4l6.6-26.7c6.9,4.1,21,9.1,32.1,9.1c11.2,0,15.9-3.9,15.9-10.1c0-6.1-3.7-9-17.6-13.7
			c-24.8-8.3-34.4-21.8-34.1-36.1c0-22.3,19.1-39.3,48.8-39.3c14,0,26.5,3.2,33.9,6.9l-6.6,25.8c-5.5-2.9-15.7-6.9-26-6.9
			c-9.1,0-14.2,3.7-14.2,9.8c0,5.6,4.6,8.6,19.3,13.8c22.8,7.8,32.4,19.4,32.6,37C-153.9,461.3-171.7,477.7-206,477.7L-206,477.7z"
			/>
	</g>
</g>
</svg>
