<?xml version="1.0" encoding="utf-8"?>
<!-- Generator: Adobe Illustrator 19.0.0, SVG Export Plug-In . SVG Version: 6.00 Build 0)  -->
<svg version="1.1" id="Layer_1" xmlns="http://www.w3.org/2000/svg" xmlns:xlink="http://www.w3.org/1999/xlink" x="0px" y="0px"
	 viewBox="0 0 375 375" enable-background="new 0 0 375 375" xml:space="preserve">
<g>
	<g>
		<path fill="#484848" d="M139.2,123.9c-7.5,0-12.7,0.8-15.4,1.5v48.8c3.2,0.7,7.1,0.9,12.4,0.9c19.9,0,32.2-10,32.2-27
			C168.4,132.9,157.9,123.9,139.2,123.9L139.2,123.9z M139.2,123.9"/>
		<path fill="#484848" d="M319.2,38.3H37.4v300.1h300.1V56.7C337.6,46.5,329.3,38.3,319.2,38.3L319.2,38.3z M190.2,186.4
			c-12.7,12-31.6,17.4-53.7,17.4c-4.9,0-9.3-0.2-12.7-0.7v59.1h-37V99.1c11.5-1.9,27.7-3.4,50.5-3.4c23.1,0,39.5,4.4,50.5,13.2
			c10.7,8.3,17.7,22.1,17.7,38.3C205.4,163.4,200.1,177.1,190.2,186.4L190.2,186.4z M246,264.7c-15.7,0-29.7-3.4-38.8-8.4l6.6-26.7
			c6.9,4.1,21,9.1,32.1,9.1c11.2,0,15.9-3.9,15.9-10.1c0-6.1-3.7-9-17.6-13.7c-24.8-8.3-34.4-21.8-34.1-36.1
			c0-22.3,19.1-39.3,48.8-39.3c14,0,26.5,3.2,33.9,6.9l-6.6,25.8c-5.5-2.9-15.7-6.9-26-6.9c-9.1,0-14.2,3.7-14.2,9.8
			c0,5.6,4.6,8.6,19.3,13.8c22.8,7.8,32.4,19.4,32.6,37C298.1,248.3,280.3,264.7,246,264.7L246,264.7z M246,264.7"/>
	</g>
</g>
</svg>
