<?xml version="1.0" encoding="utf-8"?>
<!-- Generator: Adobe Illustrator 19.0.0, SVG Export Plug-In . SVG Version: 6.00 Build 0)  -->
<svg version="1.1" id="Isolation_Mode" xmlns="http://www.w3.org/2000/svg" xmlns:xlink="http://www.w3.org/1999/xlink" x="0px"
	 y="0px" viewBox="-452 213 375 375" enable-background="new -452 213 375 375" xml:space="preserve">
<g>
	<path fill="#AA1E22" d="M-236.2,407.1l20.9,9.6l-2.1-14.9l-19.1-10.2L-236.2,407.1z M-394.7,457l27.2,3.1l5.9-25.3l-26-4.6
		L-394.7,457z M-297.9,281.9l-17.8-13.2l-12.4,16.8l19.5,12.2L-297.9,281.9z M-243.4,237.6l-11.4-14.9l-16.1,9.5l13.3,14.5
		L-243.4,237.6z M-184.6,227.1l-3.7-12.2l-19.3-1.6l5.6,13.3L-184.6,227.1z M-119.2,242.4l-16.2-11.6v7.5l15.7,9.7L-119.2,242.4z
		 M-338.8,350.5l-22.2-9.7l-7.5,22l22.8,8.5L-338.8,350.5z M-228,340.6l-4,13.6l14.3,13.2l3.6-12.7L-228,340.6z M-136.6,279.5
		l11.9,0.6l0.1-5.5l-12.4-2.5L-136.6,279.5z M-186.1,233.5c-57.2-2.8-159.6,51.4-174.3,269h140.3c-31.5-81.5-27.8-143-6.2-184.6
		c31.5-60.6,78.3-64.6,122-39.1c1.5-3.7,3.7-8.3,3.7-8.3C-125.6,246.5-149,235.3-186.1,233.5z M-181.9,278.8l5.2,12.5l9.7-5.2
		l-3.6-11.5L-181.9,278.8z M-213.6,307l10.6,14.6l6.6-9.6l-9.3-14.4L-213.6,307z M-197.4,477l-6.6-16l-24.3-4.5l6.4,18.4L-197.4,477
		z"/>
	<path fill="#AA1E22" d="M-355.6,551.3v-10.3c0-5.5-5.5-15.4-15.6-15.4s-32.8,0-32.8,0v62h16.8v-18.1l13.5,18.1h20.1l-15.7-20.9
		C-369.3,566.7-355.6,563.9-355.6,551.3z M-372.1,554.4h-15.2v-12.5h15.2V554.4z M-307,525.2h-15.2c-7.6,0-15.6,7-15.6,16.1
		c0,9.2,0,45.9,0,45.9h16.5v-12.1h14.8v12.1h16.8c0,0,0-37,0-46S-297.9,525.2-307,525.2z M-306.5,558.6h-14.8V542h14.8V558.6z
		 M-153,547.7c-7.4,0-16.2,0-16.2,0v-6.8h28.3v-15.4c0,0-18.5,0-28.4,0c-10,0-16.8,7.9-16.8,15.9v6.6c0,9.6,8.6,16.2,16.6,16.2
		s15,0,15,0v7.5H-185v15.7c0,0,21.2,0,30.2,0s17.1-6.8,17.1-15v-8.2C-137.7,554.2-145.7,547.7-153,547.7z M-220.6,525.4h-16.6v62.1
		h41.5v-16.6h-24.9V525.4z M-271.9,587.4h16.6v-62.1h-16.6V587.4z"/>
</g>
</svg>
