<?xml version="1.0" encoding="utf-8"?>
<!-- Generator: Adobe Illustrator 19.0.0, SVG Export Plug-In . SVG Version: 6.00 Build 0)  -->
<svg version="1.1" id="Isolation_Mode" xmlns="http://www.w3.org/2000/svg" xmlns:xlink="http://www.w3.org/1999/xlink" x="0px"
	 y="0px" viewBox="-373.8 213.9 375 375" enable-background="new -373.8 213.9 375 375" xml:space="preserve">
<g>
	<path fill="#484848" d="M-170.2,408l20.9,9.6l-2.1-14.9l-19.1-10.2L-170.2,408z M-328.7,457.9l27.2,3.1l5.9-25.3l-26-4.6
		L-328.7,457.9z M-231.9,282.8l-17.8-13.2l-12.4,16.8l19.5,12.2L-231.9,282.8z M-177.4,238.5l-11.4-14.9l-16.1,9.5l13.3,14.5
		L-177.4,238.5z M-118.6,228l-3.7-12.2l-19.3-1.6l5.6,13.3L-118.6,228z M-53.2,243.3l-16.2-11.6v7.5l15.7,9.7L-53.2,243.3z
		 M-272.8,351.4l-22.2-9.7l-7.5,22l22.8,8.5L-272.8,351.4z M-162,341.5l-4,13.6l14.3,13.2l3.6-12.7L-162,341.5z M-70.6,280.4
		l11.9,0.6l0.1-5.5L-71,273L-70.6,280.4z M-120.1,234.4c-57.2-2.8-159.6,51.4-174.3,269h140.3c-31.5-81.5-27.8-143-6.2-184.6
		c31.5-60.6,78.3-64.6,122-39.1c1.5-3.7,3.7-8.3,3.7-8.3C-59.6,247.4-83,236.2-120.1,234.4z M-115.9,279.6l5.2,12.5l9.7-5.2
		l-3.6-11.5L-115.9,279.6z M-147.6,307.9l10.6,14.6l6.6-9.6l-9.3-14.4L-147.6,307.9z M-131.4,477.9l-6.6-16l-24.3-4.5l6.4,18.4
		L-131.4,477.9z"/>
	<path fill="#484848" d="M-289.6,552.2v-10.3c0-5.5-5.5-15.4-15.6-15.4c-10.1,0-32.8,0-32.8,0v62h16.8v-18.1l13.5,18.1h20.1
		l-15.7-20.9C-303.3,567.5-289.6,564.8-289.6,552.2z M-306.1,555.3h-15.2v-12.5h15.2C-306.1,542.8-306.1,555.3-306.1,555.3z
		 M-241,526.1h-15.2c-7.6,0-15.6,7-15.6,16.1c0,9.2,0,45.9,0,45.9h16.5V576h14.8v12.1h16.8c0,0,0-37,0-46S-231.9,526.1-241,526.1z
		 M-240.5,559.4h-14.8v-16.6h14.8V559.4z M-87,548.5c-7.4,0-16.2,0-16.2,0v-6.8h28.3v-15.4c0,0-18.5,0-28.4,0
		c-10,0-16.8,7.9-16.8,15.9v6.6c0,9.6,8.6,16.2,16.6,16.2s15,0,15,0v7.5H-119v15.7c0,0,21.2,0,30.2,0s17.1-6.8,17.1-15V565
		C-71.7,555.1-79.7,548.5-87,548.5z M-154.6,526.3h-16.6v62.1h41.5v-16.6h-24.9V526.3z M-205.9,588.3h16.6v-62.1h-16.6V588.3z"/>
</g>
</svg>
