<?xml version="1.0" encoding="utf-8"?>
<!-- Generator: Adobe Illustrator 19.0.0, SVG Export Plug-In . SVG Version: 6.00 Build 0)  -->
<svg version="1.1" id="Layer_1" xmlns="http://www.w3.org/2000/svg" xmlns:xlink="http://www.w3.org/1999/xlink" x="0px" y="0px"
	 viewBox="-602 363 75 75" enable-background="new -602 363 75 75" xml:space="preserve">
<path fill="#AA1E22" d="M-548,392l-7.8,24.2l-4.2,12.9l10.8-11.8L-526,392H-548z M-574.3,392l7.7,23.8l3.1,9.6l3.1-9.6l7.6-23.8
	H-574.3z M-601,392l23.2,25.3l10.5,11.5l-4.1-12.6l-7.8-24.2H-601z M-563.6,375.6l-9.2,11.8h18.4L-563.6,375.6z M-539.9,373.7
	l-6.2,13.8h19.9L-539.9,373.7z M-587.1,373.7l-13.7,13.7h19.8L-587.1,373.7z M-560.7,371.9l10.5,13.4l6.1-13.4H-560.7z
	 M-582.9,371.9l6,13.4l10.4-13.4H-582.9z"/>
</svg>
