<?xml version="1.0" encoding="utf-8"?>
<!-- Generator: Adobe Illustrator 19.0.0, SVG Export Plug-In . SVG Version: 6.00 Build 0)  -->
<svg version="1.1" id="Layer_1" xmlns="http://www.w3.org/2000/svg" xmlns:xlink="http://www.w3.org/1999/xlink" x="0px" y="0px"
	 viewBox="0 0 75 75" enable-background="new 0 0 75 75" xml:space="preserve">
<path fill="#484848" d="M54,29l-7.8,24.2L42,66.1l10.8-11.8L76,29H54z M27.7,29l7.7,23.8l3.1,9.6l3.1-9.6L49.2,29H27.7z M1,29
	l23.2,25.3l10.5,11.5l-4.1-12.6L22.8,29H1z M38.4,12.6l-9.2,11.8h18.4L38.4,12.6z M62.1,10.7l-6.2,13.8h19.9L62.1,10.7z M14.9,10.7
	L1.2,24.4H21L14.9,10.7z M41.3,8.9l10.5,13.4l6.1-13.4H41.3z M19.1,8.9l6,13.4L35.5,8.9H19.1z"/>
</svg>
