<?xml version="1.0" encoding="utf-8"?>
<!-- Generator: Adobe Illustrator 19.0.0, SVG Export Plug-In . SVG Version: 6.00 Build 0)  -->
<svg version="1.1" id="Layer_1" xmlns="http://www.w3.org/2000/svg" xmlns:xlink="http://www.w3.org/1999/xlink" x="0px" y="0px"
	 viewBox="0 0 75 75" enable-background="new 0 0 75 75" xml:space="preserve">
<path fill="#FFFFFF" d="M75,13c-2.8,1.2-5.7,2.1-8.8,2.4c3.2-1.9,5.6-4.9,6.8-8.5c-3,1.8-6.3,3-9.8,3.7c-2.8-3-6.8-4.9-11.2-4.9
	c-8.5,0-15.4,6.9-15.4,15.4c0,1.2,0.1,2.4,0.4,3.5C24.1,24.1,12.8,17.9,5.2,8.6c-1.3,2.3-2.1,4.9-2.1,7.7c0,5.3,2.7,10,6.8,12.8
	c-2.5-0.1-4.9-0.8-7-1.9c0,0.1,0,0.1,0,0.2c0,7.5,5.3,13.7,12.3,15.1c-1.3,0.4-2.7,0.5-4.1,0.5c-1,0-2-0.1-2.9-0.3
	c2,6.1,7.6,10.6,14.4,10.7c-5.3,4.1-11.9,6.6-19.1,6.6c-1.2,0-2.5-0.1-3.7-0.2c6.8,4.4,14.9,6.9,23.6,6.9
	c28.3,0,43.8-23.4,43.8-43.8c0-0.7,0-1.3,0-2C70.3,18.8,72.9,16.1,75,13z"/>
</svg>
